<svg xmlns="http://www.w3.org/2000/svg" xmlns:xlink="http://www.w3.org/1999/xlink" width="500" zoomAndPan="magnify" viewBox="0 0 375 374.999991" height="500" preserveAspectRatio="xMidYMid meet" version="1.0"><defs><clipPath id="12901f49db"><path d="M 0 106 L 375 106 L 375 309.296875 L 0 309.296875 Z M 0 106 " clip-rule="nonzero"/></clipPath></defs><g clip-path="url(#12901f49db)"><path fill="#a6a6a6" d="M 249.589844 127.390625 C 257.777344 130.019531 265.835938 133.183594 273.625 136.8125 C 308.015625 152.859375 338.414062 176.363281 362.648438 205.59375 C 363.679688 206.824219 363.679688 208.589844 362.648438 209.820312 C 338.414062 239.050781 308.015625 262.523438 273.625 278.601562 C 265.835938 282.230469 257.777344 285.394531 249.589844 288.023438 C 293.96875 253.734375 302.089844 189.945312 267.800781 145.601562 C 262.539062 138.777344 256.414062 132.652344 249.589844 127.390625 Z M 125.378906 127.390625 C 81 161.714844 72.875 225.46875 107.167969 269.8125 C 112.425781 276.636719 118.550781 282.765625 125.378906 288.023438 C 117.152344 285.394531 109.097656 282.230469 101.308594 278.601562 C 66.917969 262.523438 36.554688 239.050781 12.316406 209.820312 C 11.285156 208.589844 11.285156 206.824219 12.316406 205.59375 C 36.554688 176.363281 66.917969 152.890625 101.308594 136.8125 C 109.097656 133.183594 117.152344 130.019531 125.378906 127.425781 Z M 185.96875 116.636719 C 235.671875 115.804688 276.554688 155.421875 277.421875 205.09375 C 277.421875 205.960938 277.421875 206.859375 277.421875 207.722656 C 278.054688 257.394531 238.335938 298.210938 188.664062 298.878906 C 138.960938 299.511719 98.144531 259.757812 97.511719 210.089844 C 97.511719 209.289062 97.511719 208.488281 97.511719 207.722656 C 96.878906 158.152344 136.429688 117.4375 185.96875 116.636719 Z M 195.457031 106.25 C 161.332031 104.984375 127.375 111.875 96.445312 126.324219 C 60.523438 143.136719 28.730469 167.675781 3.429688 198.203125 C -1.132812 203.730469 -1.132812 211.71875 3.429688 217.210938 C 28.730469 247.742188 60.523438 272.277344 96.445312 289.089844 C 154.140625 316.054688 220.859375 316.054688 278.585938 289.089844 C 314.476562 272.277344 346.269531 247.742188 371.570312 217.210938 C 376.132812 211.71875 376.132812 203.730469 371.570312 198.203125 C 346.269531 167.675781 314.476562 143.136719 278.585938 126.324219 C 252.484375 114.140625 224.222656 107.316406 195.457031 106.25 " fill-opacity="1" fill-rule="nonzero"/></g><path fill="#a6a6a6" d="M 221.589844 207.722656 C 221.957031 188.882812 207.042969 173.300781 188.199219 172.902344 C 169.355469 172.5 153.773438 187.449219 153.375 206.292969 C 153.375 206.757812 153.375 207.226562 153.375 207.722656 C 152.976562 226.535156 167.925781 242.148438 186.765625 242.515625 C 205.609375 242.914062 221.191406 227.964844 221.589844 209.121094 C 221.589844 208.65625 221.589844 208.191406 221.589844 207.722656 " fill-opacity="1" fill-rule="nonzero"/><path fill="#a6a6a6" d="M 67.015625 89.472656 L 90.085938 108.714844 C 92.585938 110.710938 96.214844 110.3125 98.210938 107.816406 C 100.140625 105.417969 99.84375 101.890625 97.480469 99.824219 L 74.40625 80.582031 C 71.910156 78.585938 68.28125 78.984375 66.285156 81.480469 C 64.320312 83.910156 64.652344 87.441406 67.015625 89.472656 " fill-opacity="1" fill-rule="nonzero"/><path fill="#a6a6a6" d="M 300.527344 80.582031 L 277.421875 99.824219 C 274.992188 101.890625 274.65625 105.550781 276.6875 107.980469 C 278.785156 110.445312 282.414062 110.777344 284.878906 108.714844 L 307.949219 89.472656 C 310.347656 87.375 310.648438 83.710938 308.515625 81.316406 C 306.484375 78.949219 302.988281 78.652344 300.527344 80.582031 " fill-opacity="1" fill-rule="nonzero"/><path fill="#a6a6a6" d="M 181.707031 53.382812 L 181.707031 83.414062 C 181.808594 86.609375 184.503906 89.105469 187.699219 88.972656 C 190.730469 88.839844 193.125 86.441406 193.257812 83.414062 L 193.257812 53.382812 C 193.125 50.1875 190.464844 47.691406 187.234375 47.824219 C 184.238281 47.957031 181.808594 50.351562 181.707031 53.382812 " fill-opacity="1" fill-rule="nonzero"/></svg>