<?xml version="1.0" encoding="UTF-8" standalone="no"?>
<!DOCTYPE svg PUBLIC "-//W3C//DTD SVG 1.1//EN" "http://www.w3.org/Graphics/SVG/1.1/DTD/svg11.dtd">
<svg xmlns="http://www.w3.org/2000/svg" version="1.1" viewBox="0.00 0.00 949.00 588.00">
<path fill="#000000" d="
  M 161.54 545.80
  C 147.96 560.33 127.99 562.17 109.36 562.21
  C 80.47 562.27 51.60 562.28 22.74 562.23
  C 22.47 562.23 22.25 562.01 22.25 561.74
  L 22.25 551.27
  C 22.25 550.93 22.42 550.76 22.76 550.76
  C 52.19 550.73 81.60 550.74 110.99 550.77
  C 141.80 550.80 164.07 540.97 163.05 506.00
  C 162.88 500.35 162.75 494.58 161.82 489.05
  C 155.59 452.22 141.45 413.99 124.84 380.93
  C 112.57 356.53 93.98 335.01 76.98 313.26
  C 61.07 292.90 49.76 268.79 46.41 242.32
  C 42.68 212.84 42.61 183.14 51.31 154.47
  C 63.80 113.29 87.04 74.49 121.44 47.88
  C 221.96 -29.89 369.53 11.10 418.04 128.19
  C 425.99 147.40 430.06 162.47 431.05 182.92
  C 434.44 252.61 411.27 323.38 359.03 371.04
  C 357.16 372.74 355.67 374.54 354.55 376.43
  C 337.69 404.87 335.76 432.78 333.23 465.75
  C 332.09 480.67 327.33 496.17 312.29 501.55
  C 308.45 502.92 302.52 503.62 294.49 503.66
  C 278.69 503.74 264.44 502.79 251.75 500.81
  C 249.02 500.38 247.42 498.53 246.97 495.26
  C 242.28 461.25 242.58 423.76 249.72 389.02
  C 249.77 388.79 249.59 388.58 249.36 388.59
  C 240.38 388.86 231.14 387.12 221.81 386.95
  C 221.32 386.94 220.92 387.34 220.93 387.83
  C 221.26 424.54 223.47 463.01 219.80 498.34
  C 217.52 520.19 234.38 531.54 252.16 538.52
  C 282.53 550.45 315.75 554.29 348.09 556.60
  C 353.95 557.01 360.61 557.22 368.07 557.23
  C 554.84 557.26 741.62 557.27 928.40 557.24
  C 928.59 557.24 928.74 557.40 928.74 557.59
  L 928.75 568.02
  C 928.75 568.42 928.42 568.75 928.02 568.75
  C 742.35 568.75 556.68 568.75 371.01 568.75
  C 363.34 568.75 356.67 568.58 351.02 568.25
  C 313.57 566.05 216.78 558.76 208.40 509.30
  C 207.89 506.29 207.90 501.92 208.41 496.21
  C 211.66 459.91 210.01 432.51 209.16 386.44
  C 209.15 386.10 208.98 385.91 208.64 385.86
  C 194.68 383.97 187.03 374.95 182.27 362.50
  C 181.36 360.13 181.19 357.43 181.75 354.38
  C 183.41 345.34 190.68 340.12 200.09 342.91
  C 212.70 346.65 220.33 361.57 220.69 374.00
  C 220.71 374.80 221.36 375.43 222.16 375.44
  C 232.69 375.55 242.50 377.61 252.54 376.85
  C 252.88 376.83 253.10 376.66 253.21 376.33
  C 256.84 365.06 264.13 350.16 277.29 347.61
  C 285.52 346.02 295.17 350.16 297.86 358.46
  C 303.81 376.76 276.05 386.42 263.28 387.39
  C 262.50 387.45 261.84 388.01 261.67 388.78
  C 254.29 421.23 253.98 456.59 257.88 489.46
  C 257.91 489.68 258.09 489.86 258.31 489.89
  C 272.18 491.76 286.13 492.47 300.16 492.02
  C 319.51 491.40 321.10 474.68 322.08 459.18
  C 324.13 426.76 328.25 397.04 345.55 368.83
  C 346.73 366.90 348.29 365.07 350.22 363.33
  C 398.92 319.44 420.43 255.88 419.91 191.31
  C 419.75 171.58 416.51 157.02 409.38 138.05
  C 400.13 113.40 386.34 91.83 368.03 73.36
  C 313.10 17.95 224.68 3.28 155.34 39.75
  C 108.37 64.45 76.89 108.45 62.15 158.87
  C 54.35 185.54 54.29 213.83 57.98 241.26
  C 60.57 260.43 67.31 278.20 78.21 294.55
  C 87.97 309.19 99.13 322.71 110.01 336.50
  C 137.52 371.34 154.76 415.45 166.60 457.84
  C 174.04 484.49 182.50 523.38 161.54 545.80
  Z
  M 193.47 358.57
  C 195.85 365.99 200.59 372.59 208.54 374.10
  C 208.85 374.16 209.13 373.90 209.10 373.59
  C 208.38 365.25 204.14 356.13 195.46 353.68
  C 195.11 353.59 194.74 353.66 194.46 353.88
  C 193.13 354.92 192.80 356.48 193.47 358.57
  Z
  M 285.31 360.44
  C 276.45 354.03 268.70 367.83 266.35 374.55
  C 266.24 374.87 266.51 375.20 266.85 375.14
  C 271.38 374.37 275.78 372.84 280.05 370.57
  C 283.23 368.88 289.72 363.63 285.31 360.44
  Z"
/>
<path fill="#0c5208" d="
  M 312.83 107.35
  C 317.62 111.45 322.29 115.94 326.31 120.75
  C 326.51 121.00 326.84 121.11 327.16 121.05
  C 332.57 119.97 337.93 118.90 343.26 117.84
  C 345.76 117.34 345.86 118.20 347.23 120.16
  C 352.45 127.65 356.95 135.57 360.73 143.92
  C 360.87 144.24 360.82 144.60 360.59 144.86
  L 348.81 158.34
  C 348.54 158.65 348.47 159.01 348.60 159.40
  C 350.73 165.39 352.36 171.50 353.51 177.74
  C 353.57 178.05 353.78 178.30 354.08 178.41
  L 371.05 184.24
  C 371.41 184.36 371.65 184.69 371.67 185.06
  C 372.24 195.09 372.46 204.81 371.67 214.79
  C 371.62 215.37 371.23 215.87 370.68 216.06
  L 354.03 221.68
  C 353.76 221.77 353.57 222.01 353.52 222.29
  C 352.42 228.58 350.76 234.73 348.55 240.72
  C 348.41 241.09 348.47 241.43 348.73 241.72
  L 360.23 254.79
  C 360.70 255.33 360.79 255.93 360.50 256.58
  C 357.59 263.05 350.46 278.84 343.87 282.05
  C 343.54 282.22 343.20 282.26 342.83 282.19
  L 327.42 279.14
  C 326.91 279.04 326.39 279.22 326.05 279.60
  C 322.18 284.00 318.00 288.20 313.53 292.20
  C 312.38 293.23 312.32 294.33 312.96 295.62
  C 313.20 296.10 312.95 296.67 312.44 296.83
  C 294.95 302.23 277.03 303.90 258.69 301.85
  C 256.82 301.64 255.15 301.31 253.67 300.86
  C 253.09 300.68 253.10 300.53 253.69 300.42
  C 317.38 287.81 353.21 219.35 327.76 159.84
  C 296.97 87.84 200.83 76.02 152.43 137.28
  C 152.24 137.53 151.85 137.32 151.94 137.02
  C 158.85 115.40 170.57 96.84 187.10 81.34
  C 187.37 81.09 187.65 81.09 187.93 81.34
  L 191.62 84.67
  C 191.78 84.82 192.01 84.88 192.22 84.82
  L 211.17 79.72
  C 211.52 79.63 211.75 79.41 211.86 79.08
  L 217.64 62.34
  C 217.74 62.05 217.94 61.88 218.25 61.85
  C 228.26 60.80 238.28 60.79 248.29 61.82
  C 248.84 61.88 249.21 62.17 249.39 62.69
  L 255.17 79.44
  C 255.21 79.56 255.31 79.65 255.43 79.68
  L 274.57 84.80
  C 274.81 84.86 275.07 84.80 275.26 84.63
  L 288.65 72.92
  C 288.87 72.71 289.20 72.66 289.49 72.79
  C 298.75 76.92 307.48 81.97 315.69 87.93
  C 315.99 88.15 316.10 88.44 316.03 88.81
  L 312.55 106.53
  C 312.48 106.86 312.58 107.13 312.83 107.35
  Z"
/>
<path fill="#000000" d="
  M 533.00 146.50
  L 551.75 146.50
  C 552.25 146.50 552.50 146.25 552.50 145.75
  L 552.50 73.00
  C 552.50 72.72 552.72 72.50 553.00 72.50
  L 589.50 72.50
  C 589.91 72.50 590.25 72.84 590.25 73.25
  L 590.25 157.57
  C 590.25 157.89 590.63 158.06 590.87 157.85
  C 599.54 150.33 607.71 144.39 618.74 143.52
  C 641.39 141.75 666.75 153.42 669.77 178.51
  C 669.80 178.81 670.21 178.88 670.34 178.61
  C 679.60 159.24 698.24 145.36 719.93 143.66
  C 759.92 140.53 786.64 165.34 784.42 205.62
  C 784.39 206.21 784.08 206.50 783.49 206.50
  L 705.44 206.49
  C 705.24 206.49 705.08 206.64 705.07 206.84
  C 704.51 219.52 714.39 228.02 726.74 229.04
  C 738.26 230.00 747.53 226.13 754.54 217.43
  C 754.85 217.05 755.38 216.94 755.81 217.16
  L 781.99 230.24
  C 782.32 230.41 782.43 230.82 782.24 231.13
  C 769.66 251.55 747.62 260.04 724.19 259.17
  C 700.70 258.30 681.08 245.87 670.73 224.44
  C 670.60 224.17 670.20 224.26 670.20 224.56
  L 670.27 255.33
  C 670.27 255.70 669.97 256.00 669.60 256.00
  L 632.83 256.00
  C 632.55 256.00 632.32 255.77 632.33 255.49
  C 632.60 235.50 632.60 215.83 632.34 196.46
  C 632.24 188.81 630.68 181.96 625.21 177.31
  C 613.78 167.59 596.48 174.70 591.62 187.92
  C 590.69 190.46 590.22 194.39 590.23 199.71
  C 590.26 218.03 590.27 236.55 590.25 255.26
  C 590.25 255.73 590.01 255.96 589.54 255.97
  C 578.15 256.04 566.71 256.03 555.21 255.93
  C 553.36 255.92 551.39 256.21 549.30 256.80
  C 532.91 261.48 510.97 260.26 501.29 244.22
  C 495.81 235.13 494.83 225.38 494.78 213.54
  C 494.72 200.93 494.72 188.35 494.77 175.80
  C 494.78 175.50 494.53 175.25 494.22 175.25
  L 479.50 175.25
  C 479.17 175.25 479.00 175.08 479.00 174.75
  L 479.00 147.00
  C 479.00 146.72 479.22 146.50 479.50 146.50
  L 494.25 146.50
  C 494.53 146.50 494.75 146.28 494.75 146.00
  L 494.75 106.25
  C 494.75 105.97 494.97 105.75 495.25 105.75
  L 531.75 105.75
  C 532.16 105.75 532.50 106.09 532.50 106.50
  L 532.50 146.00
  C 532.50 146.33 532.67 146.50 533.00 146.50
  Z
  M 747.45 184.98
  C 743.84 161.40 707.18 162.78 706.16 184.74
  C 706.13 185.25 706.37 185.51 706.88 185.51
  L 747.00 185.50
  C 747.35 185.50 747.50 185.33 747.45 184.98
  Z
  M 550.66 222.50
  L 552.22 227.97
  C 552.24 228.05 552.32 228.10 552.40 228.09
  C 552.48 228.08 552.54 228.01 552.54 227.93
  L 552.49 175.96
  C 552.49 175.57 552.17 175.25 551.77 175.25
  L 533.02 175.25
  C 532.69 175.25 532.52 175.41 532.52 175.74
  C 532.47 187.35 532.48 198.95 532.53 210.54
  C 532.59 221.87 537.77 230.23 549.93 222.23
  C 550.20 222.05 550.57 222.18 550.66 222.50
  Z"
/>
<path fill="#12960b" d="
  M 154.05 293.05
  L 140.28 279.35
  C 140.07 279.14 139.81 279.06 139.51 279.11
  L 122.07 282.52
  C 121.74 282.58 121.48 282.48 121.28 282.21
  C 115.37 274.28 110.41 265.80 106.38 256.76
  C 106.07 256.06 106.19 255.24 106.69 254.67
  L 118.09 241.63
  C 118.30 241.40 118.35 241.13 118.24 240.84
  C 116.03 234.81 114.41 228.64 113.37 222.31
  C 113.33 222.06 113.15 221.85 112.91 221.76
  L 95.91 215.93
  C 95.46 215.78 95.14 215.37 95.10 214.89
  C 94.41 205.00 94.42 195.12 95.13 185.23
  C 95.16 184.76 95.47 184.35 95.92 184.20
  L 112.59 178.50
  C 112.80 178.43 112.95 178.26 113.01 178.05
  L 118.08 158.98
  C 118.15 158.73 118.10 158.52 117.94 158.33
  C 114.35 154.18 110.79 150.07 107.25 146.02
  C 106.36 145.01 106.09 144.12 106.43 143.37
  C 110.48 134.47 115.27 126.16 120.81 118.45
  C 121.25 117.83 122.01 117.53 122.76 117.68
  L 133.53 119.83
  C 133.96 119.92 134.09 120.16 133.94 120.57
  C 99.91 211.72 156.56 309.32 253.13 323.67
  C 253.78 323.77 254.00 324.13 253.79 324.75
  L 249.37 337.56
  C 249.24 337.94 248.97 338.15 248.56 338.20
  C 238.51 339.27 228.47 339.27 218.42 338.21
  C 217.99 338.16 217.70 337.93 217.55 337.52
  L 211.75 320.61
  C 211.64 320.28 211.41 320.09 211.08 320.03
  C 204.79 318.90 198.63 317.26 192.61 315.09
  C 192.32 314.99 192.06 315.04 191.83 315.24
  L 178.51 326.97
  C 178.11 327.32 177.55 327.40 177.08 327.18
  C 167.95 323.05 159.33 318.05 151.21 312.18
  C 150.91 311.96 150.80 311.67 150.87 311.30
  L 154.28 293.81
  C 154.34 293.52 154.26 293.26 154.05 293.05
  Z"
/>
<path fill="#12960b" d="
  M 207.91 140.32
  C 209.20 164.34 239.35 169.74 250.42 149.20
  C 250.57 148.93 250.50 148.59 250.27 148.39
  C 235.78 135.95 258.85 121.07 265.47 135.37
  C 267.54 139.85 266.41 144.80 262.56 147.91
  C 261.40 148.85 259.70 149.33 258.23 150.15
  C 257.94 150.32 257.72 150.55 257.59 150.86
  C 244.72 180.44 202.54 172.69 200.39 140.41
  C 200.04 135.23 207.61 134.82 207.91 140.32
  Z
  M 262.25 139.91
  C 262.25 136.51 259.49 133.75 256.09 133.75
  C 252.69 133.75 249.93 136.51 249.93 139.91
  C 249.93 143.31 252.69 146.07 256.09 146.07
  C 259.49 146.07 262.25 143.31 262.25 139.91
  Z"
/>
<path fill="#1ae00e" d="
  M 188.96 163.55
  C 176.56 171.41 165.53 154.57 176.92 146.75
  C 183.96 141.92 193.10 147.57 192.94 156.26
  C 192.94 156.59 193.06 156.86 193.31 157.08
  C 212.61 173.96 205.08 203.42 179.94 208.75
  C 174.08 209.99 169.01 209.66 164.73 207.76
  C 161.34 206.25 162.82 199.70 167.74 201.05
  C 191.01 207.43 206.56 180.22 189.69 163.63
  C 189.47 163.41 189.23 163.38 188.96 163.55
  Z
  M 188.73 155.35
  C 188.73 151.96 185.98 149.21 182.59 149.21
  C 179.20 149.21 176.45 151.96 176.45 155.35
  C 176.45 158.74 179.20 161.49 182.59 161.49
  C 185.98 161.49 188.73 158.74 188.73 155.35
  Z"
/>
<path fill="#0c5208" d="
  M 275.79 160.04
  C 256.20 170.12 260.85 198.91 283.03 201.88
  C 283.35 201.93 283.57 201.80 283.69 201.50
  C 288.01 190.96 302.83 192.33 303.92 203.48
  C 304.69 211.25 296.98 217.13 289.71 214.05
  C 287.68 213.19 286.09 211.45 284.42 209.81
  C 284.19 209.58 283.91 209.45 283.58 209.41
  C 252.20 205.49 244.90 164.20 275.28 152.29
  C 277.37 151.48 279.01 151.71 280.20 153.00
  C 284.06 157.15 278.22 158.79 275.79 160.04
  Z
  M 299.82 204.59
  C 299.82 201.19 297.06 198.43 293.66 198.43
  C 290.26 198.43 287.50 201.19 287.50 204.59
  C 287.50 207.99 290.26 210.75 293.66 210.75
  C 297.06 210.75 299.82 207.99 299.82 204.59
  Z"
/>
<path fill="#1ae00e" d="
  M 242.04 246.06
  C 242.03 247.11 242.18 248.08 242.49 248.99
  C 242.60 249.32 242.83 249.51 243.17 249.55
  C 252.05 250.58 257.14 259.10 251.44 266.34
  C 243.41 276.55 226.32 264.60 235.58 253.15
  C 235.79 252.89 235.86 252.59 235.77 252.26
  C 227.85 220.82 267.05 202.76 287.57 226.19
  C 291.14 230.27 286.46 236.38 282.51 231.81
  C 267.75 214.75 242.13 223.39 242.04 246.06
  Z
  M 249.46 259.91
  C 249.46 256.54 246.72 253.80 243.35 253.80
  C 239.98 253.80 237.24 256.54 237.24 259.91
  C 237.24 263.28 239.98 266.02 243.35 266.02
  C 246.72 266.02 249.46 263.28 249.46 259.91
  Z"
/>
<path fill="#0c5208" d="
  M 178.59 220.14
  C 178.97 220.30 179.40 220.26 179.75 220.04
  C 193.87 211.07 213.38 215.66 221.58 230.19
  C 227.01 239.82 226.73 252.59 220.05 261.60
  C 216.94 265.80 211.40 262.09 213.66 258.33
  C 219.29 248.98 219.56 240.55 214.45 233.04
  C 207.51 222.84 196.66 220.42 185.30 225.09
  C 184.53 225.40 184.29 225.95 184.58 226.72
  C 185.41 229.00 185.11 231.71 184.03 233.95
  C 178.96 244.45 162.39 239.76 164.66 227.61
  C 165.81 221.42 172.52 217.66 178.59 220.14
  Z
  M 180.85 229.62
  C 180.85 226.22 178.10 223.47 174.70 223.47
  C 171.30 223.47 168.55 226.22 168.55 229.62
  C 168.55 233.02 171.30 235.77 174.70 235.77
  C 178.10 235.77 180.85 233.02 180.85 229.62
  Z"
/>
<path fill="#000000" d="
  M 581.85 388.25
  L 569.75 388.25
  C 569.42 388.25 569.25 388.42 569.25 388.75
  L 569.26 468.62
  C 569.26 468.83 569.09 469.00 568.88 469.00
  L 532.00 469.00
  C 531.72 469.00 531.50 468.78 531.50 468.50
  L 531.50 360.25
  C 531.50 359.75 531.75 359.50 532.25 359.50
  L 581.76 359.47
  C 582.17 359.47 582.51 359.13 582.51 358.72
  C 582.50 351.38 582.49 343.97 582.49 336.50
  C 582.48 312.28 592.50 285.55 620.28 282.67
  C 632.83 281.36 644.63 284.27 655.70 291.40
  C 656.20 291.73 656.38 292.37 656.12 292.91
  L 643.58 318.14
  C 643.40 318.51 643.13 318.60 642.77 318.42
  C 639.41 316.78 635.91 315.90 632.26 315.79
  C 621.58 315.46 620.65 324.54 620.47 332.57
  C 620.28 341.38 620.20 350.19 620.25 359.00
  C 620.25 359.33 620.42 359.50 620.76 359.50
  L 644.89 359.50
  C 645.32 359.50 645.53 359.71 645.52 360.14
  L 645.45 373.27
  C 645.45 373.41 645.62 373.49 645.72 373.39
  C 658.49 361.72 673.11 356.04 689.56 356.37
  C 726.76 357.11 748.99 381.49 746.92 418.64
  C 746.90 419.12 746.50 419.50 746.02 419.50
  L 668.21 419.50
  C 667.86 419.50 667.67 419.68 667.66 420.03
  C 667.05 431.48 674.81 439.10 685.57 441.22
  C 698.48 443.76 708.94 440.22 716.96 430.59
  C 717.33 430.13 717.97 430.00 718.50 430.26
  L 744.50 443.25
  C 744.83 443.42 744.91 443.66 744.72 443.98
  C 732.65 464.18 711.34 472.43 688.48 472.22
  C 645.67 471.83 614.28 429.64 634.13 388.85
  C 634.26 388.57 634.06 388.25 633.75 388.25
  L 621.00 388.25
  C 620.50 388.25 620.25 388.50 620.25 389.00
  L 620.25 468.25
  C 620.25 468.75 620.00 469.00 619.50 469.00
  L 583.25 469.00
  C 582.84 469.00 582.50 468.66 582.50 468.25
  L 582.50 388.91
  C 582.50 388.55 582.21 388.26 581.85 388.25
  Z
  M 668.61 398.52
  L 709.85 398.74
  C 709.89 398.74 709.92 398.71 709.92 398.67
  L 709.92 398.66
  C 709.97 388.94 701.18 381.01 690.28 380.96
  L 688.38 380.95
  C 677.47 380.89 668.60 388.72 668.54 398.44
  L 668.54 398.45
  C 668.54 398.49 668.58 398.52 668.61 398.52
  Z"
/>
<rect fill="#000000" x="488.25" y="285.50" width="37.76" height="183.50" rx="0.68"/>
<circle fill="#12960b" cx="551.71" cy="315.50" r="23.99"/>
<path fill="#12960b" d="
  M 552.20 511.75
  C 547.56 515.79 541.60 515.04 538.40 509.76
  C 532.90 500.67 541.69 488.14 552.14 495.56
  C 552.55 495.85 552.75 495.74 552.75 495.25
  L 552.75 486.98
  C 552.75 486.25 553.10 485.77 553.80 485.56
  C 555.37 485.09 556.22 485.86 556.23 487.43
  C 556.26 495.90 556.27 504.19 556.24 512.28
  C 556.23 513.12 555.60 513.82 554.77 513.91
  C 553.36 514.06 552.68 513.42 552.75 512.01
  C 552.77 511.50 552.59 511.42 552.20 511.75
  Z
  M 546.6074 510.9699
  C 550.01 510.95 552.76 507.74 552.7399 503.7877
  C 552.72 499.84 549.94 496.65 546.5326 496.6701
  C 543.13 496.69 540.38 499.90 540.4001 503.8523
  C 540.42 507.80 543.20 510.99 546.6074 510.9699
  Z"
/>
<circle fill="#12960b" cx="770.88" cy="488.92" r="2.13"/>
<path fill="#12960b" d="
  M 731.10 498.02
  C 731.12 497.51 730.66 497.11 730.16 497.22
  C 729.27 497.41 728.47 497.29 727.77 496.86
  C 727.10 496.44 726.83 495.60 727.13 494.87
  C 727.44 494.14 728.22 493.74 728.99 493.91
  C 729.48 494.02 729.96 494.05 730.43 493.99
  C 730.70 493.95 730.91 493.72 730.92 493.45
  L 731.14 490.02
  C 731.16 489.63 731.36 489.37 731.74 489.25
  C 735.50 488.01 734.75 491.55 734.77 493.52
  C 734.77 493.92 734.97 494.10 735.37 494.05
  C 736.58 493.90 737.80 493.95 739.04 494.19
  C 739.84 494.35 740.25 495.07 739.98 495.86
  C 739.71 496.65 738.85 497.25 738.00 497.25
  L 735.37 497.25
  C 734.94 497.25 734.73 497.46 734.73 497.89
  L 734.79 509.91
  C 734.79 510.36 735.02 510.59 735.47 510.59
  L 738.22 510.62
  C 738.62 510.62 738.95 510.92 739.00 511.31
  C 739.45 515.13 733.15 514.45 731.79 512.01
  C 730.27 509.27 730.95 501.34 731.10 498.02
  Z"
/>
<path fill="#12960b" d="
  M 493.23 505.40
  C 494.14 509.38 496.63 511.22 500.71 510.93
  C 502.65 510.79 503.92 509.52 505.66 508.83
  C 507.04 508.29 508.23 509.94 507.29 511.08
  C 500.12 519.74 486.43 511.29 490.23 500.13
  C 493.66 490.06 505.83 491.48 508.39 501.32
  C 509.00 503.65 508.20 504.77 505.78 504.75
  C 501.75 504.72 497.73 504.73 493.72 504.77
  C 493.29 504.78 493.13 504.99 493.23 505.40
  Z
  M 493.51 501.76
  L 504.39 501.60
  C 504.47 501.60 504.53 501.54 504.53 501.46
  L 504.53 501.44
  C 504.49 498.81 502.02 496.72 499.00 496.76
  L 498.78 496.76
  C 495.75 496.80 493.34 498.97 493.37 501.60
  L 493.37 501.62
  C 493.37 501.69 493.44 501.76 493.51 501.76
  Z"
/>
<path fill="#12960b" d="
  M 650.57 512.12
  C 640.84 519.13 629.20 508.56 635.20 498.21
  C 638.17 493.09 644.47 491.93 649.63 494.60
  C 650.35 494.97 650.82 495.69 650.86 496.50
  C 650.92 497.64 650.49 498.24 649.58 498.31
  C 649.16 498.34 648.64 498.16 648.02 497.75
  C 641.06 493.28 634.02 502.55 639.35 508.71
  C 641.78 511.51 645.00 511.73 649.03 509.38
  C 649.28 509.23 649.53 509.20 649.80 509.29
  C 650.85 509.60 651.24 510.34 650.97 511.51
  C 650.91 511.76 650.77 511.97 650.57 512.12
  Z"
/>
<path fill="#12960b" d="
  M 694.97 511.93
  C 694.97 511.86 694.89 511.81 694.83 511.85
  C 691.14 514.06 687.85 514.63 684.98 513.56
  C 672.25 508.80 681.88 485.27 694.30 495.61
  C 694.71 495.96 694.94 495.86 694.98 495.32
  L 695.04 494.60
  C 695.07 494.29 695.24 494.01 695.51 493.85
  C 696.66 493.19 697.58 493.38 698.26 494.41
  C 698.42 494.64 698.50 494.92 698.50 495.20
  L 698.50 512.26
  C 698.50 513.38 697.46 514.21 696.37 513.96
  C 695.34 513.73 694.88 513.05 694.97 511.93
  Z
  M 688.8350 510.9800
  C 692.24 510.97 694.99 507.76 694.9800 503.8085
  C 694.97 499.86 692.19 496.67 688.7850 496.6800
  C 685.38 496.69 682.63 499.90 682.6400 503.8515
  C 682.65 507.80 685.43 510.99 688.8350 510.9800
  Z"
/>
<path fill="#12960b" d="
  M 811.9810 514.4168
  C 806.32 514.28 801.84 509.42 801.9831 503.5693
  C 802.13 497.72 806.83 493.08 812.4990 493.2232
  C 818.16 493.36 822.64 498.22 822.4969 504.0707
  C 822.35 509.92 817.65 514.56 811.9810 514.4168
  Z
  M 812.2524 510.9200
  C 815.85 510.91 818.76 507.73 818.7500 503.7986
  C 818.74 499.87 815.82 496.69 812.2276 496.7000
  C 808.63 496.71 805.72 499.89 805.7300 503.8214
  C 805.74 507.75 808.66 510.93 812.2524 510.9200
  Z"
/>
<path fill="#12960b" d="
  M 856.26 496.21
  C 859.65 492.88 865.16 491.68 867.92 495.96
  C 870.17 499.43 869.28 508.17 869.23 512.67
  C 869.23 513.62 868.27 514.27 867.38 513.94
  L 866.29 513.53
  C 866.03 513.43 865.84 513.19 865.82 512.92
  C 865.49 509.03 865.33 505.13 865.35 501.24
  C 865.36 497.73 863.60 496.28 860.07 496.89
  C 853.86 497.97 855.72 507.43 855.76 512.02
  C 855.77 513.11 854.90 513.99 853.81 514.01
  C 852.76 514.02 852.03 513.03 852.02 511.96
  C 851.99 506.37 851.98 500.85 852.01 495.40
  C 852.02 493.89 853.78 493.09 854.92 494.07
  C 855.49 494.56 855.77 495.20 855.75 495.99
  C 855.73 496.49 855.90 496.56 856.26 496.21
  Z"
/>
<rect fill="#12960b" x="-1.87" y="-10.22" transform="translate(770.88,503.74) rotate(-0.1)" width="3.74" height="20.44" rx="1.81"/>
<path fill="#12960b" d="
  M 596.75 514.24
  C 584.99 515.71 587.16 502.24 587.35 495.51
  C 587.39 494.29 587.99 493.69 589.15 493.72
  C 590.17 493.75 590.99 494.59 590.99 495.62
  C 591.00 499.30 591.01 503.01 591.00 506.75
  C 590.99 511.28 597.66 512.37 599.73 508.88
  C 601.27 506.29 600.49 498.77 600.52 495.55
  C 600.53 494.61 601.23 493.81 602.17 493.70
  C 603.39 493.54 604.21 494.66 604.23 495.87
  C 604.31 502.71 606.45 513.03 596.75 514.24
  Z"
/>
</svg>
