<?xml version="1.0" encoding="utf-8"?>
<!-- Svg Vector Icons : http://www.onlinewebfonts.com/icon -->
<!DOCTYPE svg PUBLIC "-//W3C//DTD SVG 1.1//EN" "http://www.w3.org/Graphics/SVG/1.1/DTD/svg11.dtd">
<svg version="1.1" xmlns="http://www.w3.org/2000/svg" xmlns:xlink="http://www.w3.org/1999/xlink" x="0px" y="0px" viewBox="0 0 256 256" enable-background="new 0 0 256 256" xml:space="preserve">
<metadata> Svg Vector Icons : http://www.onlinewebfonts.com/icon </metadata>
<g><g><g><path fill="#000000" d="M120.6,58.4l-3.7,1l-51.5,51.5c-56.4,56.3-53.9,53.6-55.2,61.3c-1.2,7.1,1.3,14.5,6.9,19.8c7.2,6.9,16.9,8.3,25.8,4c2.9-1.4,8-6.3,44.1-42.5l40.8-41l40.8,40.6c36.8,36.7,41.1,40.8,44.2,42.3c9.5,4.6,19.6,2.8,26.7-4.6c3.6-3.8,5.4-7.4,6.2-12.5c0.7-4.6-0.2-10.2-2.5-14.1c-1-1.7-18.8-19.9-53.2-54.3L138.4,58l-7.1-0.3C125.4,57.4,123.7,57.5,120.6,58.4z"/></g></g></g>
</svg>